<mxfile host="Electron" modified="2023-10-08T23:49:49.841Z" agent="Mozilla/5.0 (Windows NT 10.0; Win64; x64) AppleWebKit/537.36 (KHTML, like Gecko) draw.io/22.0.0 Chrome/114.0.5735.289 Electron/25.8.3 Safari/537.36" etag="iPGA48hDvXCkQ5Kw-afL" version="22.0.0" type="device">
  <diagram name="Page-1" id="MLJbCbh5LuQ4ZBYruapm">
    <mxGraphModel dx="863" dy="505" grid="1" gridSize="10" guides="1" tooltips="1" connect="1" arrows="1" fold="1" page="1" pageScale="1" pageWidth="850" pageHeight="1100" math="0" shadow="0">
      <root>
        <mxCell id="0" />
        <mxCell id="1" parent="0" />
        <mxCell id="pNxijsKyVbHmoXpAPMMA-3" value="OLD MAN está no ginásio na passadeira desportiva" style="rounded=1;whiteSpace=wrap;html=1;fontSize=7;glass=0;strokeWidth=1;shadow=0;" parent="1" vertex="1">
          <mxGeometry x="660" y="90" width="160" height="40" as="geometry" />
        </mxCell>
        <mxCell id="pNxijsKyVbHmoXpAPMMA-4" value="" style="ellipse;whiteSpace=wrap;html=1;aspect=fixed;fontSize=7;" parent="1" vertex="1">
          <mxGeometry x="725" y="230" width="30" height="30" as="geometry" />
        </mxCell>
        <mxCell id="pNxijsKyVbHmoXpAPMMA-5" value="" style="ellipse;whiteSpace=wrap;html=1;aspect=fixed;fontSize=7;fillColor=#000000;" parent="1" vertex="1">
          <mxGeometry x="730" y="235" width="20" height="20" as="geometry" />
        </mxCell>
        <mxCell id="pNxijsKyVbHmoXpAPMMA-6" value="" style="rounded=0;html=1;jettySize=auto;orthogonalLoop=1;fontSize=7;endArrow=block;endFill=0;endSize=8;strokeWidth=1;shadow=0;labelBackgroundColor=none;edgeStyle=orthogonalEdgeStyle;exitX=0.5;exitY=1;exitDx=0;exitDy=0;" parent="1" edge="1">
          <mxGeometry y="20" relative="1" as="geometry">
            <mxPoint as="offset" />
            <mxPoint x="740.0000000000001" y="200" as="sourcePoint" />
            <mxPoint x="740.0000000000001" y="230" as="targetPoint" />
          </mxGeometry>
        </mxCell>
        <mxCell id="pNxijsKyVbHmoXpAPMMA-10" value="OLD MAN repara que ATHLETIC MAN não se encontra no ginásio" style="rounded=1;whiteSpace=wrap;html=1;fontSize=7;glass=0;strokeWidth=1;shadow=0;" parent="1" vertex="1">
          <mxGeometry x="460" y="90" width="160" height="40" as="geometry" />
        </mxCell>
        <mxCell id="pNxijsKyVbHmoXpAPMMA-11" value="" style="rounded=0;html=1;jettySize=auto;orthogonalLoop=1;fontSize=7;endArrow=block;endFill=0;endSize=8;strokeWidth=1;shadow=0;labelBackgroundColor=none;edgeStyle=orthogonalEdgeStyle;exitX=0;exitY=0.5;exitDx=0;exitDy=0;" parent="1" edge="1">
          <mxGeometry y="20" relative="1" as="geometry">
            <mxPoint as="offset" />
            <mxPoint x="660" y="110" as="sourcePoint" />
            <mxPoint x="620" y="109.75999999999999" as="targetPoint" />
            <Array as="points">
              <mxPoint x="640" y="109.75999999999999" />
            </Array>
          </mxGeometry>
        </mxCell>
        <mxCell id="pNxijsKyVbHmoXpAPMMA-12" value="OLD MAN assume que nunca esteve debilitado fisicamente e que tudo não passara de uma farsa" style="rounded=1;whiteSpace=wrap;html=1;fontSize=7;glass=0;strokeWidth=1;shadow=0;" parent="1" vertex="1">
          <mxGeometry x="260" y="90" width="160" height="40" as="geometry" />
        </mxCell>
        <mxCell id="pNxijsKyVbHmoXpAPMMA-13" value="" style="ellipse;whiteSpace=wrap;html=1;aspect=fixed;fontSize=7;fillColor=#000000;" parent="1" vertex="1">
          <mxGeometry x="725" y="20" width="30" height="30" as="geometry" />
        </mxCell>
        <mxCell id="pNxijsKyVbHmoXpAPMMA-14" value="" style="rounded=0;html=1;jettySize=auto;orthogonalLoop=1;fontSize=7;endArrow=block;endFill=0;endSize=8;strokeWidth=1;shadow=0;labelBackgroundColor=none;edgeStyle=orthogonalEdgeStyle;" parent="1" edge="1">
          <mxGeometry y="20" relative="1" as="geometry">
            <mxPoint as="offset" />
            <mxPoint x="739.8" y="50" as="sourcePoint" />
            <mxPoint x="739.8" y="90" as="targetPoint" />
          </mxGeometry>
        </mxCell>
        <mxCell id="pNxijsKyVbHmoXpAPMMA-15" value="" style="rounded=0;html=1;jettySize=auto;orthogonalLoop=1;fontSize=7;endArrow=block;endFill=0;endSize=8;strokeWidth=1;shadow=0;labelBackgroundColor=none;edgeStyle=orthogonalEdgeStyle;exitX=0;exitY=0.5;exitDx=0;exitDy=0;" parent="1" edge="1">
          <mxGeometry y="20" relative="1" as="geometry">
            <mxPoint as="offset" />
            <mxPoint x="460" y="109.95000000000002" as="sourcePoint" />
            <mxPoint x="420" y="109.71000000000001" as="targetPoint" />
            <Array as="points">
              <mxPoint x="440" y="109.71000000000001" />
            </Array>
          </mxGeometry>
        </mxCell>
        <mxCell id="pNxijsKyVbHmoXpAPMMA-16" value="OLD MAN revela que não tinha consciência da falta que sentia da esposa" style="rounded=1;whiteSpace=wrap;html=1;fontSize=7;glass=0;strokeWidth=1;shadow=0;" parent="1" vertex="1">
          <mxGeometry x="60" y="90" width="160" height="40" as="geometry" />
        </mxCell>
        <mxCell id="pNxijsKyVbHmoXpAPMMA-17" value="OLD MAN afirma ter vendido tudo o que havia na sua casa numa tentativa de a esquecer" style="rounded=1;whiteSpace=wrap;html=1;fontSize=7;glass=0;strokeWidth=1;shadow=0;" parent="1" vertex="1">
          <mxGeometry x="60" y="160" width="160" height="40" as="geometry" />
        </mxCell>
        <mxCell id="pNxijsKyVbHmoXpAPMMA-18" value="" style="rounded=0;html=1;jettySize=auto;orthogonalLoop=1;fontSize=7;endArrow=block;endFill=0;endSize=8;strokeWidth=1;shadow=0;labelBackgroundColor=none;edgeStyle=orthogonalEdgeStyle;exitX=0.5;exitY=1;exitDx=0;exitDy=0;" parent="1" edge="1">
          <mxGeometry y="20" relative="1" as="geometry">
            <mxPoint as="offset" />
            <mxPoint x="139.70999999999998" y="130" as="sourcePoint" />
            <mxPoint x="139.70999999999998" y="160" as="targetPoint" />
          </mxGeometry>
        </mxCell>
        <mxCell id="pNxijsKyVbHmoXpAPMMA-19" value="OLD MAN sente-se cada vez mais causador da morte da amante" style="rounded=1;whiteSpace=wrap;html=1;fontSize=7;glass=0;strokeWidth=1;shadow=0;" parent="1" vertex="1">
          <mxGeometry x="260" y="160" width="160" height="40" as="geometry" />
        </mxCell>
        <mxCell id="pNxijsKyVbHmoXpAPMMA-20" value="OLD MAN recorda o momento do acidente que vitimou a sua mulher e no qual se encontrava embriagado" style="rounded=1;whiteSpace=wrap;html=1;fontSize=7;glass=0;strokeWidth=1;shadow=0;" parent="1" vertex="1">
          <mxGeometry x="460" y="160" width="160" height="40" as="geometry" />
        </mxCell>
        <mxCell id="pNxijsKyVbHmoXpAPMMA-21" value="OLD MAN, cada vez mais alieaado, acredita merecer uma consequência com caráter punitivo" style="rounded=1;whiteSpace=wrap;html=1;fontSize=7;glass=0;strokeWidth=1;shadow=0;" parent="1" vertex="1">
          <mxGeometry x="660" y="160" width="160" height="40" as="geometry" />
        </mxCell>
        <mxCell id="pNxijsKyVbHmoXpAPMMA-22" value="" style="rounded=0;html=1;jettySize=auto;orthogonalLoop=1;fontSize=7;endArrow=block;endFill=0;endSize=8;strokeWidth=1;shadow=0;labelBackgroundColor=none;edgeStyle=orthogonalEdgeStyle;exitX=0;exitY=0.5;exitDx=0;exitDy=0;" parent="1" edge="1">
          <mxGeometry y="20" relative="1" as="geometry">
            <mxPoint as="offset" />
            <mxPoint x="260" y="109.95000000000002" as="sourcePoint" />
            <mxPoint x="220" y="109.71000000000001" as="targetPoint" />
            <Array as="points">
              <mxPoint x="240" y="109.71000000000001" />
            </Array>
          </mxGeometry>
        </mxCell>
        <mxCell id="pNxijsKyVbHmoXpAPMMA-23" value="" style="rounded=0;html=1;jettySize=auto;orthogonalLoop=1;fontSize=7;endArrow=block;endFill=0;endSize=8;strokeWidth=1;shadow=0;labelBackgroundColor=none;edgeStyle=orthogonalEdgeStyle;exitX=0.5;exitY=1;exitDx=0;exitDy=0;entryX=0;entryY=0.5;entryDx=0;entryDy=0;" parent="1" edge="1">
          <mxGeometry y="20" relative="1" as="geometry">
            <mxPoint as="offset" />
            <mxPoint x="220" y="179.7" as="sourcePoint" />
            <mxPoint x="260" y="179.82" as="targetPoint" />
          </mxGeometry>
        </mxCell>
        <mxCell id="pNxijsKyVbHmoXpAPMMA-24" value="" style="rounded=0;html=1;jettySize=auto;orthogonalLoop=1;fontSize=7;endArrow=block;endFill=0;endSize=8;strokeWidth=1;shadow=0;labelBackgroundColor=none;edgeStyle=orthogonalEdgeStyle;exitX=0.5;exitY=1;exitDx=0;exitDy=0;entryX=0;entryY=0.5;entryDx=0;entryDy=0;" parent="1" edge="1">
          <mxGeometry y="20" relative="1" as="geometry">
            <mxPoint as="offset" />
            <mxPoint x="420" y="179.69" as="sourcePoint" />
            <mxPoint x="460" y="179.81" as="targetPoint" />
          </mxGeometry>
        </mxCell>
        <mxCell id="pNxijsKyVbHmoXpAPMMA-26" value="" style="rounded=0;html=1;jettySize=auto;orthogonalLoop=1;fontSize=7;endArrow=block;endFill=0;endSize=8;strokeWidth=1;shadow=0;labelBackgroundColor=none;edgeStyle=orthogonalEdgeStyle;exitX=0.5;exitY=1;exitDx=0;exitDy=0;entryX=0;entryY=0.5;entryDx=0;entryDy=0;" parent="1" edge="1">
          <mxGeometry y="20" relative="1" as="geometry">
            <mxPoint as="offset" />
            <mxPoint x="620" y="179.69" as="sourcePoint" />
            <mxPoint x="660" y="179.81" as="targetPoint" />
          </mxGeometry>
        </mxCell>
      </root>
    </mxGraphModel>
  </diagram>
</mxfile>
